<svg width="332" height="332" viewBox="0 0 332 332" fill="none" xmlns="http://www.w3.org/2000/svg">
<rect width="332" height="332" fill="#090909"/>
<path d="M87.2529 112.385C88.8857 112.969 90.4959 112.909 92.0834 112.206C93.671 111.502 94.7947 110.351 95.4546 108.752C94.7947 110.351 94.7794 111.96 95.4088 113.578C96.0382 115.196 97.1375 116.374 98.7069 117.112C97.0741 116.528 95.4639 116.588 93.8764 117.292C92.2889 117.995 91.1651 119.146 90.5052 120.746C91.1651 119.146 91.1804 117.538 90.551 115.919C89.9217 114.301 88.8223 113.123 87.2529 112.385ZM100.29 97.0344C103.463 98.1639 106.596 98.0486 109.689 96.6884C112.781 95.3283 114.972 93.0874 116.26 89.9659C114.972 93.0874 114.948 96.2224 116.189 99.3709C117.43 102.519 119.574 104.812 122.62 106.249C120.535 105.497 118.417 105.302 116.267 105.666C114.117 106.029 112.183 106.886 110.463 108.237C108.744 109.588 107.459 111.294 106.608 113.354C107.903 110.217 107.935 107.072 106.705 103.919C105.474 100.766 103.336 98.4714 100.29 97.0344ZM97.5284 126.91C99.9128 127.768 102.272 127.684 104.605 126.658C106.938 125.633 108.59 123.943 109.56 121.591C108.59 123.943 108.566 126.304 109.489 128.674C110.412 131.043 112.021 132.764 114.317 133.838C111.932 132.98 109.577 133.065 107.252 134.094C104.927 135.123 103.279 136.814 102.308 139.167C103.279 136.814 103.299 134.451 102.368 132.079C101.437 129.706 99.824 127.983 97.5284 126.91ZM119.133 122.167C121.517 123.025 123.867 122.941 126.181 121.917C128.496 120.893 130.142 119.196 131.119 116.828C130.148 119.181 130.128 121.544 131.059 123.916C131.989 126.289 133.603 128.012 135.898 129.085C133.514 128.227 131.157 128.307 128.827 129.325C126.497 130.343 124.846 132.028 123.876 134.381C124.846 132.028 124.873 129.673 123.954 127.314C123.036 124.956 121.429 123.24 119.133 122.167Z" fill="#FFC700"/>
<path d="M254.581 112.385C252.948 112.969 251.338 112.909 249.751 112.206C248.163 111.502 247.039 110.351 246.379 108.752C247.039 110.351 247.055 111.96 246.425 113.578C245.796 115.196 244.696 116.374 243.127 117.112C244.76 116.528 246.37 116.588 247.958 117.292C249.545 117.995 250.669 119.146 251.329 120.746C250.669 119.146 250.654 117.538 251.283 115.919C251.912 114.301 253.012 113.123 254.581 112.385ZM241.544 97.0344C238.371 98.1639 235.238 98.0486 232.145 96.6884C229.053 95.3283 226.862 93.0874 225.574 89.9659C226.862 93.0874 226.886 96.2224 225.645 99.3709C224.404 102.519 222.26 104.812 219.214 106.249C221.299 105.497 223.417 105.302 225.567 105.666C227.717 106.029 229.651 106.886 231.371 108.237C233.09 109.588 234.375 111.294 235.226 113.354C233.931 110.217 233.899 107.072 235.129 103.919C236.36 100.766 238.498 98.4714 241.544 97.0344ZM244.306 126.91C241.921 127.768 239.562 127.684 237.229 126.658C234.896 125.633 233.244 123.943 232.273 121.591C233.244 123.943 233.268 126.304 232.345 128.674C231.422 131.043 229.813 132.764 227.517 133.838C229.902 132.98 232.257 133.065 234.582 134.094C236.907 135.123 238.555 136.814 239.526 139.167C238.555 136.814 238.535 134.451 239.466 132.079C240.397 129.706 242.01 127.983 244.306 126.91ZM222.701 122.167C220.317 123.025 217.967 122.941 215.653 121.917C213.338 120.893 211.692 119.196 210.715 116.828C211.686 119.181 211.706 121.544 210.775 123.916C209.845 126.289 208.231 128.012 205.936 129.085C208.32 128.227 210.677 128.307 213.007 129.325C215.337 130.343 216.988 132.028 217.958 134.381C216.988 132.028 216.961 129.673 217.88 127.314C218.798 124.956 220.405 123.24 222.701 122.167Z" fill="#FFC700"/>
<path d="M170.837 147.762C171.553 148.454 172.124 149.282 172.517 150.197C172.91 151.112 173.117 152.096 173.126 153.092C173.135 154.088 172.945 155.075 172.568 155.997C172.191 156.919 171.634 157.756 170.929 158.46C170.225 159.165 169.388 159.722 168.466 160.099C167.544 160.476 166.557 160.666 165.561 160.657C164.565 160.648 163.581 160.441 162.666 160.048C161.751 159.655 160.923 159.084 160.232 158.367L149.627 147.762L128.417 168.98C129.823 170.387 130.612 172.296 130.612 174.285C130.611 176.275 129.82 178.182 128.413 179.589C127.005 180.995 125.097 181.785 123.108 181.784C121.118 181.783 119.21 180.992 117.804 179.585L107.199 168.98C105.792 167.574 105.001 165.666 105 163.676C104.999 161.687 105.789 159.779 107.195 158.371C108.602 156.964 110.509 156.173 112.499 156.172C114.488 156.172 116.397 156.961 117.804 158.367L139.022 137.157L128.417 126.552C127.05 125.138 126.294 123.243 126.311 121.277C126.329 119.311 127.117 117.429 128.508 116.039C129.898 114.648 131.78 113.86 133.746 113.842C135.712 113.825 137.607 114.581 139.022 115.947L170.837 147.762ZM176.147 142.46L144.317 110.637L207.962 47L234.482 52.3025L239.784 78.8225L176.147 142.46Z" fill="#771F4B"/>
<path d="M166.837 148.762C167.553 149.454 168.124 150.282 168.517 151.197C168.91 152.112 169.117 153.096 169.126 154.092C169.135 155.088 168.945 156.075 168.568 156.997C168.191 157.919 167.634 158.756 166.929 159.46C166.225 160.165 165.388 160.722 164.466 161.099C163.544 161.476 162.557 161.666 161.561 161.657C160.565 161.648 159.581 161.441 158.666 161.048C157.751 160.655 156.923 160.084 156.232 159.367L145.627 148.762L124.417 169.98C125.823 171.387 126.612 173.296 126.612 175.285C126.611 177.275 125.82 179.182 124.413 180.589C123.005 181.995 121.097 182.785 119.108 182.784C117.118 182.783 115.21 181.992 113.804 180.585L103.199 169.98C101.792 168.574 101.001 166.666 101 164.676C100.999 162.687 101.789 160.779 103.195 159.371C104.602 157.964 106.509 157.173 108.499 157.172C110.488 157.172 112.397 157.961 113.804 159.367L135.022 138.157L124.417 127.552C123.05 126.138 122.294 124.243 122.311 122.277C122.329 120.311 123.117 118.429 124.508 117.039C125.898 115.648 127.78 114.86 129.746 114.842C131.712 114.825 133.607 115.581 135.022 116.947L166.837 148.762ZM172.147 143.46L140.317 111.637L203.962 48L230.482 53.3025L235.784 79.8225L172.147 143.46Z" fill="#ABC773"/>
<path d="M162.094 149.469C162.811 150.161 163.382 150.989 163.775 151.904C164.168 152.819 164.375 153.803 164.384 154.799C164.392 155.795 164.203 156.782 163.826 157.704C163.448 158.626 162.891 159.463 162.187 160.167C161.483 160.871 160.646 161.428 159.724 161.805C158.802 162.183 157.815 162.372 156.819 162.364C155.823 162.355 154.839 162.148 153.924 161.755C153.009 161.362 152.181 160.791 151.489 160.074L140.884 149.469L119.674 170.687C121.081 172.094 121.87 174.002 121.87 175.992C121.869 177.981 121.078 179.889 119.671 181.296C118.263 182.702 116.355 183.492 114.365 183.491C112.376 183.49 110.468 182.699 109.062 181.292L98.4568 170.687C97.0495 169.28 96.2585 167.373 96.2578 165.383C96.2571 163.394 97.0468 161.485 98.4531 160.078C99.8594 158.671 101.767 157.88 103.757 157.879C105.746 157.878 107.655 158.668 109.062 160.074L130.279 138.864L119.674 128.259C118.308 126.845 117.552 124.95 117.569 122.984C117.586 121.017 118.375 119.136 119.766 117.746C121.156 116.355 123.037 115.566 125.004 115.549C126.97 115.532 128.865 116.288 130.279 117.654L162.094 149.469ZM167.404 144.167L135.574 112.344L199.219 48.7068L225.739 54.0093L231.042 80.5293L167.404 144.167Z" fill="white"/>
<path d="M114.52 215.6C117.667 215.6 120.107 216.333 121.84 217.8C123.6 219.267 124.48 221.24 124.48 223.72C124.48 225.693 124.013 227.32 123.08 228.6C122.173 229.853 120.867 230.773 119.16 231.36L126.04 242H118.44L112.8 232.36H108.68V242H101.92V215.6H114.52ZM113.56 227.48C114.893 227.48 115.893 227.213 116.56 226.68C117.227 226.147 117.56 225.293 117.56 224.12C117.56 221.907 116.227 220.8 113.56 220.8H108.68V227.48H113.56ZM126.738 242L136.018 215.6H144.258L153.498 242H146.418L144.618 236.04H135.498L133.658 242H126.738ZM138.938 225L136.938 231.36H143.178L141.258 225.04L140.098 220.88H140.018L138.938 225ZM169.168 215.6C172.315 215.6 174.755 216.333 176.488 217.8C178.248 219.267 179.128 221.24 179.128 223.72C179.128 225.693 178.662 227.32 177.728 228.6C176.822 229.853 175.515 230.773 173.808 231.36L180.688 242H173.088L167.448 232.36H163.328V242H156.568V215.6H169.168ZM168.208 227.48C169.542 227.48 170.542 227.213 171.208 226.68C171.875 226.147 172.208 225.293 172.208 224.12C172.208 221.907 170.875 220.8 168.208 220.8H163.328V227.48H168.208ZM191.027 215.6V242H184.147V215.6H191.027ZM219.081 215.6V220.92H210.481V242H203.601V220.92H194.961V215.6H219.081ZM245.271 215.6L235.951 232.36V242H229.071V232.36L219.751 215.6H226.871L230.591 222.84L232.551 227.24L234.551 222.84L238.271 215.6H245.271Z" fill="white"/>
<path d="M50.16 286L59.44 259.6H67.68L76.92 286H69.84L68.04 280.04H58.92L57.08 286H50.16ZM62.36 269L60.36 275.36H66.6L64.68 269.04L63.52 264.88H63.44L62.36 269ZM91.1903 259.6C95.3236 259.6 98.4836 260.747 100.67 263.04C102.884 265.333 103.99 268.587 103.99 272.8C103.99 277.013 102.884 280.267 100.67 282.56C98.4836 284.853 95.3236 286 91.1903 286H79.9903V259.6H91.1903ZM90.5103 280.8C92.7503 280.8 94.377 280.133 95.3903 278.8C96.4303 277.44 96.9503 275.44 96.9503 272.8C96.9503 270.16 96.4303 268.173 95.3903 266.84C94.377 265.48 92.7503 264.8 90.5103 264.8H86.8703V280.8H90.5103ZM132.158 259.6L122.798 286H114.718L105.318 259.6H112.558L117.398 275.56L118.838 280.76L120.238 275.64L125.158 259.6H132.158ZM135.303 286V259.6H155.863V264.92H142.183V270.28H153.063V275.28H142.183V280.68H156.383V286H135.303ZM184.337 259.6V286H176.697L168.497 271.72L166.497 267.8H166.457L166.617 272.68V286H160.537V259.6H168.177L176.377 273.88L178.377 277.8H178.417L178.257 272.92V259.6H184.337ZM212.386 259.6V264.92H203.786V286H196.906V264.92H188.266V259.6H212.386ZM239.398 259.6V275.24C239.398 282.68 235.465 286.4 227.598 286.4C223.732 286.4 220.798 285.48 218.798 283.64C216.798 281.773 215.798 278.973 215.798 275.24V259.6H222.718V275.36C222.718 279.12 224.345 281 227.598 281C230.878 281 232.518 279.12 232.518 275.36V259.6H239.398ZM257.317 259.6C260.464 259.6 262.904 260.333 264.637 261.8C266.397 263.267 267.277 265.24 267.277 267.72C267.277 269.693 266.81 271.32 265.877 272.6C264.97 273.853 263.664 274.773 261.957 275.36L268.837 286H261.237L255.597 276.36H251.477V286H244.717V259.6H257.317ZM256.357 271.48C257.69 271.48 258.69 271.213 259.357 270.68C260.024 270.147 260.357 269.293 260.357 268.12C260.357 265.907 259.024 264.8 256.357 264.8H251.477V271.48H256.357ZM272.295 286V259.6H292.855V264.92H279.175V270.28H290.055V275.28H279.175V280.68H293.375V286H272.295Z" fill="white"/>
</svg>
